<svg width="30" height="25" viewBox="0 0 30 25" fill="none" xmlns="http://www.w3.org/2000/svg">
<path d="M10.9616 25C10.7051 24.9991 10.4516 24.9396 10.2167 24.8254C9.98185 24.7111 9.77067 24.5445 9.59629 24.3358L0.50695 13.6041C0.167179 13.2023 -0.014836 12.667 0.000947115 12.1162C0.0167303 11.5654 0.229018 11.0441 0.591111 10.667C0.953203 10.2899 1.43544 10.0878 1.93173 10.1054C2.42802 10.1229 2.89772 10.3585 3.23749 10.7604L10.9429 19.8729L26.6715 0.77603C26.8311 0.555425 27.0297 0.373365 27.255 0.241034C27.4804 0.108702 27.7277 0.0288929 27.9818 0.00650733C28.2359 -0.0158783 28.4915 0.0196329 28.7328 0.110859C28.9741 0.202086 29.196 0.347101 29.385 0.536999C29.574 0.726897 29.726 0.957669 29.8317 1.21514C29.9374 1.47261 29.9945 1.75134 29.9996 2.03422C30.0047 2.3171 29.9577 2.59815 29.8613 2.8601C29.765 3.12206 29.6215 3.3594 29.4395 3.55753L12.3455 24.315C12.1728 24.5275 11.9624 24.698 11.7274 24.8159C11.4925 24.9338 11.2381 24.9964 10.9803 25H10.9616Z" fill="#02BB0A"/>
</svg>
