<svg width="60" height="46" viewBox="0 0 60 46" fill="none" xmlns="http://www.w3.org/2000/svg">
<path d="M53.8811 44.6331C48.4111 37.2088 41.6511 34.8776 33.3344 34.2866V38.5541C33.3344 40.1399 32.6411 41.6307 31.3811 42.7532C28.8611 44.9983 24.4578 44.9835 21.9711 42.7681L0.994426 24.3352C0.679477 24.0589 0.429362 23.7295 0.25864 23.3662C0.0879189 23.003 0 22.6131 0 22.2193C0 21.8255 0.0879189 21.4356 0.25864 21.0723C0.429362 20.7091 0.679477 20.3797 0.994426 20.1034L21.9544 1.68233C24.4678 -0.559788 28.8644 -0.562758 31.3844 1.6853C32.6411 2.80785 33.3344 4.29864 33.3344 5.88445V10.9448C48.7311 13.7155 60.0011 25.7844 60.0011 40.036V43.0057C60.003 43.6457 59.7725 44.2692 59.344 44.7829C58.9155 45.2967 58.3119 45.6732 57.6235 45.8563C56.9351 46.0393 56.1986 46.0191 55.5242 45.7987C54.8497 45.5782 54.2733 45.1693 53.8811 44.6331ZM30.0778 28.1928C37.4344 28.3591 45.5378 29.3629 52.6044 34.4915C51.329 29.7398 48.4372 25.455 44.3245 22.2231C40.2117 18.9912 35.0789 16.97 29.6278 16.4358C27.9478 16.2695 26.6678 16.2814 26.6678 16.2814V5.89633L8.08109 22.2178L26.6678 38.5511V28.1602L30.0778 28.1928Z" fill="black" fill-opacity="0.68"/>
</svg>
