<svg width="141" height="85" viewBox="0 0 141 85" fill="none" xmlns="http://www.w3.org/2000/svg">
<path d="M37.5 0C22.0312 0 9.375 12.6562 9.375 28.125C9.375 37.425 13.9547 45.7031 20.9484 50.8312C8.5875 56.9625 0 69.675 0 84.375H9.375C9.375 68.7937 21.9188 56.25 37.5 56.25C53.0812 56.25 65.625 68.7937 65.625 84.375H75C75 68.7937 87.5437 56.25 103.125 56.25C118.706 56.25 131.25 68.7937 131.25 84.375H140.625C140.625 69.6703 132.037 56.9625 119.677 50.8312C123.255 48.2234 126.169 44.8081 128.18 40.8627C130.191 36.9174 131.243 32.5533 131.25 28.125C131.25 12.6562 118.594 0 103.125 0C87.6562 0 75 12.6562 75 28.125C75 37.425 79.5797 45.7031 86.5734 50.8312C79.7247 54.1985 74.0557 59.5602 70.3125 66.2109C66.5693 59.5602 60.9003 54.1985 54.0516 50.8312C57.6305 48.2234 60.5438 44.8081 62.5547 40.8627C64.5657 36.9174 65.6176 32.5533 65.625 28.125C65.625 12.6562 52.9688 0 37.5 0ZM37.5 9.375C47.9203 9.375 56.25 17.7047 56.25 28.125C56.25 38.5453 47.9203 46.875 37.5 46.875C27.0797 46.875 18.75 38.5453 18.75 28.125C18.75 17.7047 27.0797 9.375 37.5 9.375ZM103.125 9.375C113.545 9.375 121.875 17.7047 121.875 28.125C121.875 38.5453 113.545 46.875 103.125 46.875C92.7047 46.875 84.375 38.5453 84.375 28.125C84.375 17.7047 92.7047 9.375 103.125 9.375Z" fill="black" fill-opacity="0.68"/>
</svg>
