<svg width="140" height="80" viewBox="0 0 140 80" fill="none" xmlns="http://www.w3.org/2000/svg">
<path fill-rule="evenodd" clip-rule="evenodd" d="M0 10C0 4.47467 5.6 0 12.5 0H52.5C59.4067 0 65 4.48 65 10V30C65 35.5253 59.4 40 52.5 40H12.5C9.18479 40 6.00537 38.9464 3.66117 37.0711C1.31696 35.1957 0 32.6522 0 30V10ZM80 18C80 12.4747 85.6 8 92.5 8H127.5C134.4 8 140 12.48 140 18V62C140 67.52 134.4 72 127.5 72H92.5C89.1848 72 86.0054 70.9464 83.6612 69.0711C81.317 67.1957 80 64.6522 80 62V18ZM10 58C10 52.4747 15.6 48 22.5 48H57.5C64.4067 48 70 52.48 70 58V70C70 75.52 64.4 80 57.5 80H22.5C19.1848 80 16.0054 78.9464 13.6612 77.0711C11.317 75.1957 10 72.6522 10 70V58Z" fill="black" fill-opacity="0.68"/>
</svg>
