<svg width="233" height="214" viewBox="0 0 233 214" fill="none" xmlns="http://www.w3.org/2000/svg">
<path d="M24.5313 5.4375C17.1563 12.8125 17.1563 24.6875 24.5313 31.9375L73.1562 80.5625L46.6562 195.438L64.2813 213.188L112.781 120.312L161.531 169.062L157.031 199.937L170.406 213.188L192.406 173.438L232.281 151.312L219.031 137.812L187.781 142.438L139.406 94.0625L232.281 45.1875L214.531 27.5625L99.6562 54.0625L51.0312 5.4375C44.0312 -1.8125 31.5313 -1.8125 24.5313 5.4375Z" fill="#FF3E00"/>
<path d="M5.53127 5.4375C-1.84373 12.8125 -1.84373 24.6875 5.53127 31.9375L54.1562 80.5625L27.6562 195.438L45.2813 213.188L93.7813 120.312L142.531 169.062L138.031 199.937L151.406 213.188L173.406 173.438L213.281 151.312L200.031 137.812L168.781 142.438L120.406 94.0625L213.281 45.1875L195.531 27.5625L80.6562 54.0625L32.0312 5.4375C25.0312 -1.8125 12.5313 -1.8125 5.53127 5.4375Z" fill="#FF7043"/>
</svg>
