<svg width="65" height="67" viewBox="0 0 65 67" fill="none" xmlns="http://www.w3.org/2000/svg">
<ellipse cx="32.5" cy="33.5" rx="32.5" ry="33.5" fill="white"/>
<path d="M63.5 33.5C63.5 51.2163 49.5783 65.5 32.5 65.5C15.4217 65.5 1.5 51.2163 1.5 33.5C1.5 15.7837 15.4217 1.5 32.5 1.5C49.5783 1.5 63.5 15.7837 63.5 33.5Z" stroke="black" stroke-opacity="0.68" stroke-width="3"/>
<path d="M54.4509 57.0966C51.2026 51.1703 46.1969 46.9208 40.3552 44.9063C43.2448 43.091 45.4898 40.3248 46.7455 37.0326C48.0012 33.7405 48.1982 30.1043 47.3061 26.6826C46.4141 23.2608 44.4823 20.2427 41.8076 18.0917C39.1328 15.9407 35.8629 14.7758 32.5 14.7758C29.1371 14.7758 25.8672 15.9407 23.1925 18.0917C20.5177 20.2427 18.586 23.2608 17.6939 26.6826C16.8018 30.1043 16.9988 33.7405 18.2545 37.0326C19.5102 40.3248 21.7553 43.091 24.6449 44.9063C18.8031 46.9185 13.7974 51.168 10.5491 57.0966C10.43 57.3015 10.351 57.5296 10.3167 57.7673C10.2825 58.0051 10.2937 58.2476 10.3497 58.4807C10.4058 58.7138 10.5055 58.9326 10.6429 59.1244C10.7804 59.3161 10.9529 59.4769 11.1502 59.5971C11.3475 59.7174 11.5656 59.7948 11.7917 59.8246C12.0178 59.8545 12.2473 59.8363 12.4666 59.771C12.6859 59.7058 12.8906 59.5948 13.0686 59.4448C13.2466 59.2947 13.3943 59.1085 13.5031 58.8972C17.5213 51.5686 24.6235 47.1931 32.5 47.1931C40.3765 47.1931 47.4788 51.5686 51.497 58.8972C51.6057 59.1085 51.7534 59.2947 51.9315 59.4448C52.1095 59.5948 52.3142 59.7058 52.5335 59.771C52.7528 59.8363 52.9822 59.8545 53.2083 59.8246C53.4344 59.7948 53.6525 59.7174 53.8498 59.5971C54.0471 59.4769 54.2196 59.3161 54.3571 59.1244C54.4946 58.9326 54.5943 58.7138 54.6503 58.4807C54.7063 58.2476 54.7175 58.0051 54.6833 57.7673C54.6491 57.5296 54.57 57.3015 54.4509 57.0966ZM20.5563 30.9875C20.5563 28.4946 21.2568 26.0577 22.5692 23.9849C23.8815 21.9121 25.7469 20.2966 27.9293 19.3426C30.1118 18.3886 32.5133 18.139 34.8301 18.6253C37.147 19.1117 39.2752 20.3121 40.9455 22.0749C42.6159 23.8376 43.7534 26.0835 44.2143 28.5285C44.6751 30.9735 44.4386 33.5078 43.5346 35.811C42.6306 38.1141 41.0997 40.0827 39.1356 41.4677C37.1715 42.8526 34.8623 43.5919 32.5 43.5919C29.3334 43.5883 26.2974 42.2592 24.0583 39.8962C21.8191 37.5332 20.5597 34.3293 20.5563 30.9875Z" fill="black" fill-opacity="0.68"/>
</svg>
