<svg width="120" height="98" viewBox="0 0 120 98" fill="none" xmlns="http://www.w3.org/2000/svg">
<path d="M53.7604 59.8542L84.5 29.25L76.7812 21.5313L53.7604 44.5521L42.25 33.0417L34.6667 40.625L53.7604 59.8542ZM0 97.5V86.6667H119.167V97.5H0ZM16.25 81.25C13.2708 81.25 10.7196 80.1884 8.59625 78.065C6.47292 75.9417 5.41306 73.3922 5.41667 70.4167V10.8333C5.41667 7.85418 6.47833 5.30293 8.60167 3.17959C10.725 1.05626 13.2744 -0.00360191 16.25 9.19638e-06H102.917C105.896 9.19638e-06 108.447 1.06168 110.57 3.18501C112.694 5.30834 113.754 7.85779 113.75 10.8333V70.4167C113.75 73.3959 112.688 75.9471 110.565 78.0704C108.442 80.1938 105.892 81.2536 102.917 81.25H16.25ZM16.25 70.4167H102.917V10.8333H16.25V70.4167Z" fill="black" fill-opacity="0.68"/>
</svg>
