<svg width="49" height="51" viewBox="0 0 49 51" fill="none" xmlns="http://www.w3.org/2000/svg">
<path d="M39.7888 44.4336L26.9995 31.1035C25.9845 31.9499 24.8173 32.6199 23.4977 33.1136C22.1782 33.6073 20.7741 33.8542 19.2854 33.8542C15.5975 33.8542 12.4766 32.5226 9.92281 29.8594C7.36902 27.1962 6.09144 23.9434 6.09009 20.1009C6.09009 16.2571 7.36766 13.0042 9.92281 10.3424C12.478 7.68066 15.5988 6.34907 19.2854 6.34766C22.9733 6.34766 26.0942 7.67925 28.6479 10.3424C31.2017 13.0056 32.4793 16.2585 32.4807 20.1009C32.4807 21.6526 32.2438 23.116 31.7702 24.4914C31.2965 25.8667 30.6536 27.0833 29.8416 28.1413L42.6309 41.4714L39.7888 44.4336ZM19.2854 29.6224C21.8229 29.6224 23.9802 28.6963 25.7572 26.8442C27.5341 24.9921 28.4219 22.7444 28.4206 20.1009C28.4206 17.4561 27.5321 15.2076 25.7551 13.3555C23.9782 11.5034 21.8216 10.578 19.2854 10.5794C16.7478 10.5794 14.5906 11.5055 12.8136 13.3576C11.0366 15.2097 10.1488 17.4575 10.1502 20.1009C10.1502 22.7458 11.0387 24.9942 12.8156 26.8464C14.5926 28.6985 16.7492 29.6238 19.2854 29.6224Z" fill="black" fill-opacity="0.68"/>
</svg>
